<svg width="44" height="39" viewBox="0 0 44 39" fill="none" xmlns="http://www.w3.org/2000/svg">
<path d="M25.6666 3.67111C25.667 4.39639 25.4522 5.10549 25.0496 5.70872C24.6469 6.31195 24.0744 6.78221 23.4044 7.06002C22.7344 7.33784 21.9971 7.41072 21.2858 7.26946C20.5744 7.12819 19.9208 6.77913 19.4079 6.26641C18.8949 5.75369 18.5455 5.10036 18.4038 4.38904C18.2622 3.67773 18.3347 2.94038 18.6122 2.27028C18.8896 1.60017 19.3596 1.02741 19.9626 0.624425C20.5657 0.221442 21.2746 0.00634775 21.9999 0.00634766C22.972 0.00634753 23.9044 0.392396 24.592 1.07962C25.2795 1.76684 25.6661 2.69898 25.6666 3.67111Z" fill="#9C51B7"/>
<path d="M43.5843 15.92C42.6425 15.8427 40.2879 15.6231 36.8684 16.5315C36.4362 13.0049 35.4627 10.2637 34.2625 7.33972C29.6727 8.96188 25.4889 11.5594 21.9992 14.9536C18.5105 11.5591 14.3272 8.96145 9.73769 7.33972C8.53403 10.2637 7.56407 13.0049 7.13005 16.5351C3.45756 15.5739 1.35598 15.8462 0.415897 15.9236C-0.596235 21.2425 0.176922 27.2872 3.42066 31.7101C8.01391 37.9692 15.2991 38.4471 19.0595 38.9936C17.478 37.4648 13.9075 33.4479 13.1501 32.4569L13.1361 32.4428C9.76405 28.0411 8.70272 23.4337 8.94697 18.055C9.01116 17.0341 9.14975 16.0193 9.36166 15.0186C9.70603 13.2589 10.2016 11.5322 10.843 9.85776C12.6528 10.6327 16.9403 12.7167 20.6831 16.4156C19.323 17.9456 18.1579 19.6384 17.2145 21.4552C15.2094 19.7882 12.9217 18.4944 10.4599 17.635C10.3879 18.3355 10.3632 19.0399 10.3861 19.7437C16.4026 22.3513 20.4266 26.869 21.9694 29.4749C23.2556 27.7898 24.1096 26.4702 26.053 24.669C26.4113 25.6466 26.695 26.6499 26.9017 27.6703C26.3008 28.635 24.3345 31.6345 21.9992 33.5692C19.6657 31.6363 17.6994 28.635 17.0985 27.6703C17.2057 27.1432 17.2988 26.667 17.4499 26.1486C16.934 25.6509 16.3914 25.1816 15.8245 24.7428C15.4797 25.8214 15.2143 26.9238 15.0303 28.0411C17.3761 32.3233 19.9697 34.439 21.9729 36.0573C24.092 34.3722 27.03 31.9016 28.9752 28.0411C28.0826 22.9663 25.0936 18.6015 24.2537 17.5331C23.774 17.997 23.2872 18.4961 22.8761 18.9705C23.7887 20.1491 24.5794 21.4172 25.236 22.7555C24.0542 23.792 22.9706 24.9355 21.9992 26.1714C21.0284 24.9356 19.9455 23.792 18.7643 22.7555C20.3194 19.5662 23.1063 16.405 24.4277 15.3753C27.0341 13.0959 29.9784 11.2345 33.1555 9.85776C34.0605 12.1889 34.6652 14.6258 34.9549 17.1097C32.4275 17.9721 30.0346 19.1872 27.8471 20.7189C28.1791 21.2958 28.4726 21.8939 28.7257 22.5095C30.6586 21.1354 33.5034 19.5978 36.0373 18.8194C38.3532 18.1165 40.808 17.7827 41.8975 17.7827C42.1329 19.8755 42.4246 25.8499 38.9928 30.5345C37.0301 33.209 34.1501 35.0593 30.402 36.0556C33.1766 33.2019 36.9826 27.8531 37.0617 19.9493C36.3993 20.1373 35.7017 20.3552 35.0814 20.5889C34.9057 25.7462 33.0642 29.5593 30.8642 32.4323C30.7131 32.608 27.3323 36.6636 24.939 38.983C28.6993 38.4366 35.9846 37.9586 40.5778 31.6995C43.8268 27.2837 44.5947 21.239 43.5843 15.92ZM13.6035 36.0626C9.85367 35.0663 6.97366 33.216 5.01266 30.5415C1.57563 25.8569 1.87259 19.8825 2.1063 17.7897H2.14847C3.78057 17.8197 5.40142 18.0667 6.96839 18.5242C6.55897 27.217 10.6585 33.0403 13.6035 36.0626Z" fill="#9D51B7"/>
</svg>
